<svg xmlns="http://www.w3.org/2000/svg" xmlns:xlink="http://www.w3.org/1999/xlink" width="500" zoomAndPan="magnify" viewBox="0 0 375 374.999991" height="500" preserveAspectRatio="xMidYMid meet" version="1.0"><defs><clipPath id="90f534abdb"><path d="M 34 119 L 341 119 L 341 256 L 34 256 Z M 34 119 " clip-rule="nonzero"/></clipPath><clipPath id="0e54641bec"><path d="M 187.496094 -3.597656 L 378.414062 187.320312 L 187.496094 378.238281 L -3.425781 187.320312 Z M 187.496094 -3.597656 " clip-rule="nonzero"/></clipPath><clipPath id="7cdfb3c6bb"><path d="M 187.496094 -3.597656 L 378.414062 187.320312 L 187.496094 378.238281 L -3.425781 187.320312 Z M 187.496094 -3.597656 " clip-rule="nonzero"/></clipPath></defs><g clip-path="url(#90f534abdb)"><g clip-path="url(#0e54641bec)"><g clip-path="url(#7cdfb3c6bb)"><path fill="#e4e2dd" d="M 272.75 255.664062 L 204.558594 255.652344 C 166.902344 255.664062 136.367188 225.128906 136.378906 187.472656 C 136.367188 181.554688 137.378906 175.902344 138.78125 170.429688 L 170.46875 170.429688 C 171.980469 170.421875 173.347656 170.917969 174.746094 171.292969 C 172.097656 176.132812 170.46875 181.585938 170.46875 187.472656 C 170.460938 206.277344 185.769531 221.5625 204.558594 221.5625 L 272.738281 221.5625 C 291.550781 221.5625 306.839844 206.273438 306.835938 187.46875 C 306.839844 168.675781 291.550781 153.382812 272.746094 153.378906 L 248.484375 153.390625 C 242.480469 139.722656 232.910156 128.09375 221.078125 119.285156 L 272.746094 119.285156 C 310.40625 119.292969 340.929688 149.816406 340.9375 187.480469 C 340.929688 225.132812 310.402344 255.660156 272.75 255.664062 Z M 126.542969 221.570312 L 102.277344 221.574219 C 83.484375 221.570312 68.183594 206.273438 68.179688 187.480469 C 68.1875 168.675781 83.476562 153.382812 102.28125 153.378906 L 170.46875 153.382812 C 189.277344 153.382812 204.5625 168.667969 204.558594 187.472656 C 204.558594 193.347656 202.925781 198.804688 200.296875 203.648438 C 201.710938 204.023438 203.050781 204.519531 204.558594 204.519531 L 236.242188 204.527344 C 237.664062 199.050781 238.652344 193.402344 238.648438 187.476562 C 238.652344 149.824219 208.117188 119.289062 170.460938 119.289062 L 102.28125 119.289062 C 64.621094 119.292969 34.097656 149.816406 34.089844 187.480469 C 34.09375 225.132812 64.625 255.660156 102.277344 255.667969 L 153.953125 255.667969 C 142.109375 246.859375 132.546875 235.226562 126.542969 221.570312 Z M 126.542969 221.570312 " fill-opacity="1" fill-rule="nonzero"/></g></g></g></svg>